<!-- Generated by IcoMoon.io -->
<svg version="1.1" xmlns="http://www.w3.org/2000/svg" width="32" height="32" viewBox="0 0 32 32">
<title>brand-3</title>
<path d="M7.23 13.336h-0.001c-0.718 0-1.3 0.517-1.3 1.155v0.001c0 0.638 0.582 1.155 1.3 1.155h0.001c0.718 0 1.3-0.518 1.3-1.155v-0.001c0-0.638-0.582-1.156-1.3-1.156zM16.826 12.967c-0.002-0.886-0.399-1.736-1.104-2.363s-1.661-0.98-2.658-0.982c-0.998 0.002-1.954 0.354-2.659 0.981s-1.103 1.476-1.105 2.363v4.888s7.526-0.745 7.526-4.886v-0.001zM3.294 19.458c0.002 0.617 0.278 1.208 0.769 1.644s1.155 0.682 1.849 0.684c0.694-0.002 1.359-0.248 1.849-0.684s0.767-1.027 0.769-1.643v-3.401s-5.236 0.519-5.236 3.4zM5.912 20.067c-0.136 0-0.268-0.035-0.381-0.103-0.109-0.065-0.197-0.158-0.251-0.269l-0.002-0.004c-0.033-0.068-0.052-0.148-0.052-0.233 0-0.042 0.005-0.083 0.014-0.123l-0.001 0.004c0.026-0.118 0.091-0.227 0.188-0.312s0.218-0.143 0.351-0.167c0.040-0.007 0.086-0.012 0.134-0.012 0.094 0 0.184 0.017 0.267 0.048l-0.005-0.002c0.125 0.046 0.232 0.124 0.308 0.225s0.116 0.218 0.116 0.339c0.001 0.080-0.017 0.16-0.052 0.234-0.037 0.078-0.087 0.144-0.148 0.198l-0.001 0.001c-0.063 0.057-0.139 0.102-0.223 0.133-0.078 0.030-0.168 0.047-0.262 0.047 0 0-0.001 0-0.001 0v0-0.002zM11.203 19.732h-0.505v0.522h-0.263v-1.278h0.832v0.213h-0.569v0.33h0.505v0.212zM12.468 19.644c0 0.126-0.022 0.236-0.066 0.331s-0.108 0.168-0.191 0.22c-0.078 0.048-0.173 0.077-0.275 0.077-0.003 0-0.007 0-0.010 0h0.001c-0.106 0-0.2-0.025-0.284-0.076-0.084-0.053-0.15-0.127-0.191-0.214l-0.001-0.003c-0.044-0.093-0.069-0.201-0.069-0.315 0-0.004 0-0.008 0-0.012v0.001-0.063c0-0.126 0.022-0.236 0.067-0.332s0.109-0.17 0.192-0.22c0.083-0.052 0.177-0.077 0.284-0.077s0.2 0.026 0.284 0.077c0.083 0.051 0.147 0.124 0.192 0.22s0.069 0.205 0.069 0.331v0.057zM12.202 19.586c0-0.134-0.024-0.236-0.072-0.305-0.043-0.063-0.114-0.104-0.195-0.104-0.003 0-0.007 0-0.011 0h0.001c-0.003 0-0.007 0-0.010 0-0.081 0-0.152 0.041-0.194 0.103l-0.001 0.001c-0.048 0.069-0.072 0.169-0.073 0.302v0.062c0 0.13 0.024 0.231 0.072 0.303s0.117 0.108 0.207 0.108c0.003 0 0.007 0 0.010 0 0.080 0 0.151-0.041 0.193-0.103l0.001-0.001c0.047-0.070 0.071-0.171 0.072-0.304v-0.062zM13.322 19.919c0-0.002 0-0.005 0-0.007 0-0.043-0.021-0.081-0.052-0.106h-0.001c-0.035-0.027-0.098-0.055-0.19-0.084-0.084-0.026-0.156-0.056-0.224-0.091l0.008 0.003c-0.145-0.079-0.218-0.184-0.218-0.317 0-0.069 0.019-0.131 0.058-0.184 0.039-0.054 0.095-0.097 0.168-0.127s0.155-0.045 0.245-0.045c0.091 0 0.172 0.016 0.244 0.050s0.127 0.079 0.166 0.14c0.040 0.060 0.060 0.129 0.060 0.205h-0.263c0-0.058-0.018-0.104-0.055-0.136-0.037-0.033-0.089-0.049-0.155-0.049-0.065 0-0.115 0.014-0.15 0.042-0.033 0.024-0.054 0.061-0.054 0.104 0 0.001 0 0.002 0 0.003v0c0 0.042 0.021 0.076 0.062 0.104s0.104 0.054 0.185 0.079c0.15 0.045 0.259 0.101 0.327 0.168s0.103 0.15 0.103 0.249c0 0.111-0.042 0.198-0.126 0.261s-0.196 0.094-0.337 0.094c-0.098 0-0.188-0.018-0.268-0.054-0.076-0.032-0.139-0.083-0.184-0.147l-0.001-0.001c-0.039-0.059-0.063-0.131-0.063-0.209 0-0.003 0-0.006 0-0.008v0.001h0.264c0 0.141 0.084 0.212 0.253 0.212 0.062 0 0.111-0.012 0.147-0.038 0.032-0.023 0.052-0.060 0.052-0.102 0-0.002 0-0.003 0-0.005v0zM14.726 19.19h-0.391v1.064h-0.263v-1.064h-0.385v-0.213h1.040v0.213zM15.645 19.7h-0.505v0.342h0.593v0.212h-0.856v-1.278h0.854v0.213h-0.591v0.304h0.505v0.206zM16.36 19.786h-0.209v0.468h-0.263v-1.278h0.474c0.151 0 0.267 0.034 0.349 0.101s0.123 0.162 0.123 0.285c0 0.087-0.019 0.16-0.057 0.218-0.042 0.061-0.101 0.109-0.168 0.138l-0.003 0.001 0.276 0.522v0.012h-0.282l-0.24-0.467zM16.151 19.573h0.213c0.066 0 0.117-0.016 0.153-0.050 0.034-0.033 0.054-0.079 0.054-0.13 0-0.003 0-0.007 0-0.010v0.001c0-0.061-0.017-0.108-0.052-0.142s-0.086-0.052-0.157-0.052h-0.212v0.383zM17.745 19.803v0.45h-0.263v-1.278h0.498c0.096 0 0.18 0.017 0.253 0.053s0.129 0.085 0.168 0.15c0.039 0.065 0.059 0.138 0.059 0.22 0 0.125-0.043 0.224-0.129 0.296s-0.204 0.108-0.355 0.108h-0.231zM17.745 19.591h0.235c0.070 0 0.123-0.016 0.159-0.049 0.037-0.033 0.056-0.080 0.056-0.14 0-0.003 0-0.006 0-0.010 0-0.055-0.021-0.105-0.056-0.143v0c-0.037-0.038-0.088-0.058-0.153-0.059h-0.241v0.401zM19.41 19.7h-0.505v0.342h0.593v0.212h-0.856v-1.278h0.854v0.213h-0.591v0.304h0.505v0.206zM20.632 19.19h-0.391v1.064h-0.263v-1.064h-0.386v-0.213h1.040v0.213zM21.551 19.7h-0.505v0.342h0.593v0.212h-0.856v-1.278h0.854v0.213h-0.591v0.304h0.505v0.206zM22.266 19.786h-0.209v0.468h-0.263v-1.278h0.475c0.151 0 0.267 0.034 0.349 0.101s0.123 0.162 0.123 0.285c0 0.087-0.019 0.16-0.057 0.218-0.042 0.061-0.101 0.109-0.169 0.138l-0.003 0.001 0.276 0.522v0.012h-0.282l-0.24-0.467zM22.056 19.573h0.212c0.066 0 0.117-0.016 0.153-0.050 0.034-0.033 0.054-0.079 0.054-0.13 0-0.003 0-0.007 0-0.010v0.001c0-0.061-0.017-0.108-0.052-0.142-0.034-0.034-0.086-0.052-0.157-0.052h-0.212v0.383zM23.603 19.919c0-0.002 0-0.005 0-0.007 0-0.043-0.021-0.082-0.053-0.106h-0.001c-0.035-0.027-0.098-0.055-0.19-0.084-0.084-0.026-0.156-0.056-0.224-0.091l0.008 0.003c-0.145-0.079-0.218-0.184-0.218-0.317 0-0.069 0.020-0.131 0.058-0.184 0.039-0.054 0.095-0.097 0.168-0.127s0.155-0.045 0.245-0.045c0.091 0 0.172 0.016 0.244 0.050s0.127 0.079 0.166 0.14c0.040 0.060 0.060 0.129 0.060 0.205h-0.263c0-0.058-0.018-0.104-0.055-0.136-0.037-0.033-0.089-0.049-0.155-0.049-0.065 0-0.115 0.014-0.15 0.042-0.033 0.024-0.054 0.061-0.054 0.104 0 0.001 0 0.002 0 0.003v0c0 0.042 0.021 0.076 0.062 0.104s0.104 0.054 0.185 0.079c0.15 0.045 0.259 0.101 0.327 0.168s0.103 0.15 0.103 0.249c0 0.111-0.042 0.198-0.126 0.261s-0.196 0.094-0.337 0.094c-0.098 0-0.188-0.018-0.268-0.054-0.076-0.032-0.139-0.083-0.184-0.147l-0.001-0.001c-0.039-0.059-0.063-0.131-0.063-0.209 0-0.003 0-0.006 0-0.008v0.001h0.264c0 0.141 0.084 0.212 0.253 0.212 0.062 0 0.111-0.012 0.147-0.038 0.032-0.023 0.053-0.060 0.053-0.102 0-0.002 0-0.003 0-0.005v0z"></path>
</svg>
