<!-- Generated by IcoMoon.io -->
<svg version="1.1" xmlns="http://www.w3.org/2000/svg" width="32" height="32" viewBox="0 0 32 32">
<title>brand-1</title>
<path d="M15.005 8.794h-0.041c-0.063-0.004-0.126-0.006-0.189-0.007h-0.136c-0.119 0-0.24 0.003-0.36 0.009-0.004-0.001-0.009-0.001-0.013-0.001s-0.010 0-0.014 0.001h0.001c-1.156 0.067-2.229 0.357-3.199 0.825l0.051-0.022-0.129 0.062v6.63l0.303-0.103c0.266-0.091 0.549-0.173 0.842-0.25 0.724-0.194 1.558-0.31 2.417-0.322h0.007v0.871c-0.108 0.001-0.213 0.003-0.319 0.009h-0.025c-0.68 0.038-1.318 0.14-1.932 0.301l0.067-0.015c-0.844 0.214-1.583 0.511-2.27 0.89l0.049-0.025v-8.502c0.671-0.399 1.447-0.724 2.269-0.935l0.062-0.013c0.659-0.177 1.415-0.28 2.195-0.284h0.13c0.153 0.004 0.303 0.011 0.442 0.021 0.369 0.026 0.735 0.084 1.094 0.175v0.857c-0.305-0.075-0.668-0.131-1.038-0.158l-0.022-0.001-0.022-0.002c-0.074-0.006-0.148-0.012-0.217-0.012zM16.514 9.671c0.19 0.015 0.387 0.021 0.586 0.021 0.822-0.003 1.617-0.111 2.375-0.311l-0.066 0.015c0.843-0.215 1.583-0.512 2.27-0.891l-0.049 0.025v8.351c-0.671 0.399-1.447 0.724-2.269 0.935l-0.062 0.013c-0.659 0.176-1.415 0.28-2.195 0.282h-0.002c-0.016 0-0.035 0-0.054 0-0.573 0-1.128-0.072-1.659-0.207l0.047 0.010v-8.405c0.129 0.030 0.262 0.057 0.396 0.080 0.221 0.038 0.455 0.065 0.682 0.081zM20.764 9.736l-0.303 0.102c-0.278 0.094-0.56 0.177-0.842 0.252-0.755 0.202-1.621 0.319-2.515 0.323h-0.002c-0.198 0-0.38-0.006-0.555-0.017l-0.241-0.016v6.82l0.208 0.018c0.192 0.017 0.391 0.025 0.591 0.025 0.706-0.003 1.388-0.097 2.038-0.269l-0.056 0.013c0.595-0.151 1.11-0.341 1.599-0.579l-0.049 0.022 0.129-0.062v-6.631z"></path>
<path d="M10.7 20.555c-0.081-0.084-0.195-0.136-0.321-0.136-0.006 0-0.011 0-0.017 0.001h0.001c-0.002 0-0.005 0-0.007 0-0.068 0-0.133 0.013-0.191 0.038l0.003-0.001c-0.115 0.046-0.204 0.136-0.248 0.249l-0.001 0.003c-0.024 0.060-0.035 0.123-0.035 0.188v1.136c-0.003 0.080 0.012 0.159 0.044 0.233 0.027 0.058 0.066 0.11 0.114 0.152 0.045 0.038 0.098 0.066 0.155 0.081 0.056 0.015 0.113 0.024 0.17 0.024 0.063 0.001 0.126-0.013 0.183-0.039 0.171-0.076 0.287-0.244 0.287-0.438v-0.127h-0.298v0.101c0 0.002 0 0.005 0 0.007 0 0.034-0.006 0.066-0.018 0.096l0.001-0.002c-0.010 0.025-0.025 0.047-0.043 0.064v0c-0.034 0.026-0.077 0.043-0.124 0.043v0c-0.005 0.001-0.011 0.001-0.017 0.001-0.050 0-0.094-0.024-0.121-0.062l-0.001-0.001c-0.025-0.040-0.040-0.089-0.040-0.141 0-0.004 0-0.008 0-0.012v0.001-1.059c-0.002-0.059 0.011-0.117 0.037-0.17 0.027-0.042 0.074-0.070 0.127-0.070 0.006 0 0.012 0.001 0.019 0.001h-0.001c0.002 0 0.003 0 0.006 0 0.052 0 0.098 0.025 0.127 0.064l0.001 0.001c0.031 0.040 0.049 0.091 0.049 0.146 0 0.002 0 0.005 0 0.007v-0.001 0.098h0.294v-0.116c0-0.002 0-0.003 0-0.005 0-0.070-0.013-0.136-0.038-0.198l0.001 0.003c-0.023-0.062-0.057-0.115-0.099-0.16v0zM12.464 20.542c-0.090-0.077-0.208-0.124-0.337-0.125v0c-0.061 0-0.121 0.011-0.177 0.032-0.122 0.044-0.22 0.134-0.271 0.249l-0.001 0.003c-0.030 0.069-0.045 0.144-0.043 0.22v1.089c-0.002 0.077 0.013 0.153 0.043 0.223 0.027 0.059 0.066 0.111 0.115 0.152 0.045 0.042 0.099 0.075 0.157 0.096 0.057 0.021 0.117 0.032 0.177 0.032 0.13-0.001 0.248-0.049 0.339-0.129l-0.001 0.001c0.047-0.043 0.085-0.094 0.112-0.152 0.030-0.070 0.045-0.147 0.043-0.223v-1.090c0-0.003 0-0.006 0-0.010 0-0.076-0.016-0.148-0.045-0.214l0.001 0.003c-0.027-0.062-0.066-0.115-0.112-0.159v0zM12.326 22.010c0.001 0.005 0.001 0.011 0.001 0.017 0 0.056-0.023 0.106-0.059 0.141v0c-0.038 0.031-0.086 0.051-0.14 0.051s-0.102-0.019-0.14-0.051h0.001c-0.037-0.035-0.059-0.085-0.059-0.14 0-0.006 0-0.012 0.001-0.018v0.001-1.090c-0.001-0.005-0.001-0.011-0.001-0.017 0-0.055 0.023-0.105 0.059-0.14v0c0.038-0.031 0.086-0.051 0.14-0.051s0.102 0.019 0.14 0.051h-0.001c0.037 0.035 0.059 0.085 0.059 0.14 0 0.006 0 0.012-0.001 0.018v-0.001 1.090zM14.781 22.497v-2.063h-0.285l-0.375 1.092h-0.005l-0.378-1.092h-0.282v2.063h0.295v-1.255h0.006l0.289 0.887h0.147l0.291-0.887h0.006v1.255h0.295zM16.455 20.579c-0.045-0.051-0.103-0.090-0.167-0.113-0.061-0.020-0.13-0.032-0.203-0.032-0.004 0-0.008 0-0.012 0h-0.437v2.063h0.294v-0.806h0.151c0.092 0.004 0.183-0.015 0.266-0.056 0.067-0.038 0.122-0.091 0.161-0.156l0.001-0.002c0.034-0.055 0.057-0.116 0.067-0.18 0.010-0.065 0.016-0.14 0.016-0.216 0-0.007 0-0.013 0-0.020v0.001c0.003-0.099-0.007-0.198-0.029-0.295-0.021-0.074-0.058-0.138-0.108-0.19v0zM16.304 21.208c-0.001 0.039-0.011 0.076-0.028 0.109l0.001-0.002c-0.017 0.031-0.043 0.057-0.075 0.072l-0.001 0.001c-0.037 0.017-0.079 0.026-0.123 0.026-0.006 0-0.011 0-0.016-0.001h-0.134v-0.701h0.152c0.005 0 0.009-0.001 0.014-0.001 0.043 0 0.084 0.010 0.12 0.027l-0.002-0.001c0.030 0.017 0.054 0.044 0.069 0.075l0.001 0.001c0.016 0.037 0.025 0.075 0.026 0.115v0.137c0 0.048 0.003 0.098 0 0.141h-0.003zM17.848 20.435h-0.241l-0.455 2.063h0.294l0.086-0.443h0.401l0.086 0.443h0.294l-0.465-2.063zM17.576 21.773l0.145-0.748h0.006l0.144 0.748h-0.294zM19.746 21.677h-0.006l-0.444-1.242h-0.282v2.063h0.294v-1.241h0.006l0.449 1.24h0.277v-2.063h-0.294v1.242zM21.542 20.435l-0.236 0.82h-0.006l-0.236-0.82h-0.311l0.404 1.191v0.872h0.294v-0.872l0.404-1.191h-0.312zM9.881 23.080h0.141v0.397h0.096v-0.397h0.141v-0.081h-0.378v0.082zM11.071 22.998l-0.186 0.479h0.102l0.039-0.109h0.191l0.041 0.109h0.105l-0.19-0.479h-0.102zM11.056 23.288l0.065-0.177 0.065 0.177h-0.13zM12.249 23.3h0.111v0.062c-0.031 0.025-0.071 0.040-0.114 0.040v0c-0.002 0-0.005 0-0.007 0-0.038 0-0.072-0.018-0.095-0.045v0c-0.022-0.032-0.035-0.071-0.035-0.114 0-0.004 0-0.007 0.001-0.011v0.001c0-0.107 0.046-0.16 0.138-0.16 0.003-0.001 0.007-0.001 0.010-0.001 0.047 0 0.087 0.033 0.098 0.076v0.001l0.095-0.019c-0.020-0.093-0.088-0.141-0.203-0.141-0.002 0-0.004 0-0.006 0-0.062 0-0.118 0.024-0.161 0.062v0c-0.043 0.042-0.070 0.101-0.070 0.166 0 0.006 0 0.012 0.001 0.019v-0.001c0 0.003 0 0.007 0 0.011 0 0.065 0.023 0.123 0.062 0.169l-0.001-0.001c0.042 0.044 0.102 0.071 0.167 0.071 0.005 0 0.010 0 0.015-0.001h-0.001c0.002 0 0.005 0 0.008 0 0.075 0 0.144-0.029 0.195-0.077v0-0.189h-0.208v0.081zM13.451 22.998h-0.097v0.479h0.335v-0.081h-0.239v-0.397zM14.467 22.998h-0.097v0.479h0.097v-0.479zM15.46 23.318l-0.196-0.32h-0.094v0.479h0.090v-0.313l0.193 0.313h0.097v-0.479h-0.089v0.32zM16.359 23.266h0.239v-0.081h-0.239v-0.105h0.257v-0.082h-0.354v0.479h0.363v-0.081h-0.267v-0.13zM18.538 23.187h-0.189v-0.189h-0.096v0.479h0.096v-0.209h0.189v0.209h0.097v-0.479h-0.097v0.189zM19.441 23.266h0.24v-0.081h-0.24v-0.105h0.258v-0.082h-0.353v0.479h0.363v-0.081h-0.267v-0.13zM20.666 23.266c0.084-0.013 0.126-0.057 0.126-0.133 0.001-0.004 0.001-0.008 0.001-0.013 0-0.038-0.019-0.072-0.048-0.093h-0.001c-0.035-0.018-0.077-0.029-0.121-0.029-0.007 0-0.013 0-0.020 0.001h-0.202v0.479h0.097v-0.2h0.019c0.002 0 0.005 0 0.008 0 0.019 0 0.037 0.004 0.053 0.011l-0.001-0.001c0.014 0.008 0.026 0.021 0.034 0.035l0.104 0.152h0.115l-0.058-0.093c-0.026-0.047-0.062-0.085-0.105-0.114l-0.001-0.001zM20.569 23.2h-0.071v-0.12h0.076c0.006-0.001 0.013-0.001 0.020-0.001 0.027 0 0.054 0.005 0.079 0.013l-0.002-0.001c0.013 0.012 0.021 0.028 0.021 0.047 0 0.021-0.010 0.039-0.025 0.051v0c-0.024 0.008-0.052 0.012-0.080 0.012-0.006 0-0.012 0-0.019-0.001h0.001zM21.591 23.266h0.239v-0.081h-0.239v-0.105h0.258v-0.082h-0.354v0.479h0.363v-0.081h-0.267v-0.13z"></path>
</svg>
