<!-- Generated by IcoMoon.io -->
<svg version="1.1" xmlns="http://www.w3.org/2000/svg" width="32" height="32" viewBox="0 0 32 32">
<title>brand-4</title>
<path d="M8.011 20.412c0.073 0.083 0.112 0.186 0.11 0.293 0.001 0.007 0.001 0.015 0.001 0.022 0 0.066-0.015 0.127-0.041 0.183l0.001-0.003c-0.031 0.067-0.076 0.122-0.13 0.166l-0.001 0.001c-0.124 0.085-0.277 0.136-0.443 0.136-0.018 0-0.036-0.001-0.054-0.002h-0.867v-1.853h0.852c0.015-0.001 0.033-0.002 0.051-0.002 0.157 0 0.303 0.047 0.424 0.126l-0.003-0.002c0.055 0.043 0.099 0.096 0.127 0.155 0.029 0.061 0.042 0.126 0.038 0.191 0.005 0.102-0.030 0.203-0.099 0.284-0.066 0.074-0.158 0.125-0.259 0.145 0.115 0.019 0.22 0.075 0.294 0.159zM6.992 20.133h0.364c0.083 0.006 0.165-0.016 0.231-0.062 0.026-0.022 0.048-0.049 0.061-0.081l0.001-0.002c0.011-0.024 0.017-0.052 0.017-0.081 0-0.006-0.001-0.012-0.001-0.019v0.001c0.001-0.005 0.001-0.010 0.001-0.016 0-0.030-0.006-0.058-0.017-0.084l0.001 0.001c-0.014-0.033-0.035-0.061-0.061-0.083h-0.001c-0.059-0.040-0.131-0.063-0.209-0.063-0.010 0-0.020 0.001-0.030 0.001h-0.357v0.487zM7.623 20.843c0.029-0.022 0.051-0.051 0.066-0.084l0.001-0.002c0.012-0.026 0.019-0.057 0.019-0.089 0-0.005 0-0.010-0.001-0.015v0.001c0-0.004 0.001-0.009 0.001-0.013 0-0.033-0.007-0.065-0.021-0.093l0.001 0.001c-0.016-0.034-0.039-0.063-0.068-0.085l-0.001-0.001c-0.063-0.043-0.14-0.068-0.223-0.068-0.008 0-0.017 0-0.025 0.001h-0.381v0.51h0.387c0.087 0.005 0.173-0.018 0.244-0.065zM9.752 21.209l-0.473-0.725h-0.178v0.725h-0.408v-1.854h0.771c0.016-0.001 0.036-0.002 0.055-0.002 0.181 0 0.349 0.060 0.484 0.161l-0.002-0.002c0.108 0.101 0.173 0.233 0.184 0.374 0.001 0.012 0.001 0.025 0.001 0.039 0 0.135-0.048 0.259-0.128 0.355l0.001-0.001c-0.096 0.098-0.222 0.166-0.364 0.188l-0.003 0.001 0.505 0.741h-0.443zM9.1 20.232h0.333c0.231 0 0.348-0.093 0.348-0.281 0-0.005 0.001-0.010 0.001-0.015 0-0.035-0.007-0.069-0.020-0.099l0.001 0.002c-0.016-0.038-0.038-0.070-0.066-0.096v0c-0.063-0.048-0.143-0.076-0.23-0.076-0.011 0-0.022 0.001-0.034 0.002h-0.336l0.004 0.564zM11.98 20.835h-0.812l-0.143 0.373h-0.427l0.746-1.833h0.462l0.743 1.833h-0.427l-0.14-0.373zM11.871 20.555l-0.297-0.783-0.297 0.783h0.593zM14.768 21.209h-0.404l-0.907-1.26v1.26h-0.404v-1.854h0.404l0.907 1.268v-1.268h0.404v1.854zM17.077 20.765c-0.084 0.14-0.211 0.254-0.366 0.327-0.157 0.074-0.341 0.117-0.536 0.117-0.012 0-0.023 0-0.035-0.001h-0.718v-1.854h0.72c0.010 0 0.022-0.001 0.034-0.001 0.194 0 0.378 0.042 0.543 0.117l-0.008-0.003c0.155 0.072 0.282 0.185 0.366 0.323 0.083 0.151 0.127 0.317 0.127 0.487s-0.043 0.335-0.127 0.486zM16.614 20.721c0.11-0.115 0.178-0.271 0.179-0.442v0c0-0.162-0.063-0.319-0.179-0.442-0.125-0.099-0.286-0.159-0.46-0.159-0.016 0-0.033 0.001-0.048 0.002h-0.278v1.2h0.281c0.014 0.001 0.030 0.002 0.047 0.002 0.175 0 0.335-0.060 0.461-0.16l-0.002 0.001zM12.233 9.044s5.221 1.805 5.11 4.417v4.418s-5.218-1.805-5.109-4.418l-0.002-4.417zM21.995 16.844c0.986-0.621 2.127-1.006 3.317-1.119v-1.383c-1.372 0.485-2.536 1.363-3.317 2.503z"></path>
<path d="M21.403 17.26c0.807-1.488 2.206-2.636 3.91-3.209v-3.985s-7.436 2.571-7.279 6.291v6.289s0.331-0.115 0.853-0.331c0-0.201 0-0.404 0.024-0.608 0.154-1.726 1.050-3.326 2.492-4.449z"></path>
<path d="M20.696 19.597c0.039-0.436 0.126-0.868 0.26-1.288-0.898 0.968-1.442 2.171-1.555 3.437-0.011 0.12-0.017 0.239-0.020 0.362 0.62-0.271 1.090-0.502 1.55-0.749l-0.12 0.059c-0.132-0.599-0.171-1.212-0.116-1.821zM20.991 19.619c-0.015 0.153-0.023 0.331-0.023 0.51 0 0.403 0.042 0.797 0.121 1.176l-0.007-0.037c2.032-1.113 4.314-2.833 4.226-4.911v-0.181c-1.452 0.149-2.809 0.73-3.865 1.654-0.233 0.523-0.394 1.131-0.451 1.767l-0.002 0.022z"></path>
</svg>
