<!-- Generated by IcoMoon.io -->
<svg version="1.1" xmlns="http://www.w3.org/2000/svg" width="32" height="32" viewBox="0 0 32 32">
<title>brand-6</title>
<path d="M11.378 9.113l2.099 1.986-3.895-0.002v9.638h10.18v-3.685l2.096 1.984v-9.921h-10.48zM19.669 16.817l-5.949-5.632h5.949v5.632zM17.822 19.325h-6.63v-6.481h0.469v6.042h6.161v0.438zM12.758 22.018l-0.245 0.505-0.245-0.505h-0.205l0.358 0.673v0.392h0.186v-0.392l0.357-0.673h-0.204zM13.066 23.083l0.086-0.248h0.412l0.087 0.248h0.193l-0.403-1.064h-0.166l-0.402 1.064h0.192zM13.358 22.244l0.154 0.441h-0.308l0.154-0.442zM14.333 22.66c-0.025 0.038-0.040 0.084-0.040 0.134 0 0.001 0 0.001 0 0.002v0c0 0.090 0.031 0.163 0.094 0.218s0.148 0.084 0.253 0.084c0.106 0 0.196-0.029 0.272-0.086l0.060 0.071h0.206l-0.156-0.185c0.061-0.084 0.092-0.191 0.092-0.322h-0.154c0 0.072-0.015 0.137-0.044 0.195l-0.205-0.243 0.072-0.053c0.044-0.030 0.081-0.067 0.109-0.109l0.001-0.002c0.021-0.034 0.034-0.076 0.034-0.121 0-0.001 0-0.001 0-0.002v0c0-0.001 0-0.003 0-0.004 0-0.066-0.029-0.124-0.074-0.165v0c-0.047-0.043-0.111-0.069-0.18-0.069-0.004 0-0.007 0-0.011 0h0.001c-0.086 0-0.154 0.025-0.204 0.073s-0.076 0.114-0.076 0.198c0 0.034 0.008 0.069 0.024 0.106s0.046 0.081 0.087 0.133c-0.079 0.057-0.132 0.106-0.158 0.147zM14.814 22.896c-0.045 0.037-0.104 0.059-0.168 0.060v0c-0.003 0-0.006 0-0.008 0-0.046 0-0.088-0.017-0.119-0.047v0c-0.029-0.029-0.048-0.069-0.048-0.114 0-0.002 0-0.004 0-0.006v0.001c0-0.057 0.029-0.108 0.088-0.152l0.023-0.016 0.232 0.275zM14.623 22.424c-0.051-0.062-0.075-0.113-0.075-0.154 0-0.035 0.011-0.065 0.031-0.088 0.019-0.022 0.047-0.035 0.078-0.035 0.002 0 0.003 0 0.005 0v0c0.001 0 0.002 0 0.004 0 0.029 0 0.056 0.011 0.076 0.030v0c0.021 0.020 0.031 0.043 0.031 0.071 0 0.001 0 0.003 0 0.004 0 0.040-0.017 0.075-0.045 0.099v0l-0.023 0.018-0.081 0.056zM16.355 23.002c0.073-0.064 0.115-0.153 0.126-0.266h-0.184c-0.010 0.076-0.033 0.13-0.070 0.163s-0.091 0.049-0.164 0.049c-0.079 0-0.14-0.030-0.181-0.091s-0.062-0.148-0.062-0.263v-0.094c0.001-0.114 0.023-0.199 0.066-0.258s0.106-0.088 0.186-0.088c0.069 0 0.122 0.017 0.157 0.051s0.058 0.089 0.067 0.165h0.184c-0.012-0.116-0.053-0.207-0.125-0.271s-0.166-0.096-0.284-0.096c-0.087 0-0.164 0.021-0.231 0.062-0.067 0.043-0.12 0.103-0.152 0.174l-0.001 0.003c-0.034 0.075-0.054 0.162-0.054 0.253 0 0.005 0 0.009 0 0.013v-0.001 0.099c0.002 0.098 0.020 0.184 0.055 0.258s0.085 0.131 0.149 0.172c0.065 0.040 0.14 0.060 0.225 0.060 0.121 0 0.218-0.031 0.291-0.095zM17.442 22.853c0.036-0.079 0.054-0.171 0.054-0.275v-0.059c0-0.003 0-0.007 0-0.011 0-0.095-0.020-0.185-0.057-0.266l0.002 0.004c-0.034-0.075-0.088-0.136-0.154-0.179l-0.002-0.001c-0.067-0.042-0.144-0.063-0.231-0.063s-0.163 0.021-0.231 0.063c-0.067 0.042-0.118 0.102-0.155 0.182-0.035 0.077-0.055 0.167-0.055 0.262 0 0.005 0 0.009 0 0.014v-0.001 0.060c0.001 0.102 0.019 0.191 0.056 0.269s0.089 0.138 0.157 0.181c0.068 0.042 0.145 0.063 0.231 0.063 0.088 0 0.165-0.021 0.231-0.063s0.119-0.103 0.155-0.181zM17.244 22.251c0.045 0.063 0.067 0.154 0.067 0.272v0.056c0 0.12-0.022 0.211-0.066 0.273s-0.107 0.094-0.189 0.094c-0.002 0-0.005 0-0.008 0-0.075 0-0.142-0.038-0.182-0.095l-0.001-0.001c-0.045-0.064-0.068-0.154-0.068-0.271v-0.061c0.001-0.115 0.024-0.203 0.069-0.266 0.040-0.057 0.106-0.094 0.18-0.094 0.003 0 0.006 0 0.008 0h-0.001c0.082 0 0.145 0.031 0.19 0.094z"></path>
</svg>
