<!-- Generated by IcoMoon.io -->
<svg version="1.1" xmlns="http://www.w3.org/2000/svg" width="32" height="32" viewBox="0 0 32 32">
<title>brand-5</title>
<path d="M15.996 15.224c-0.114-0.147-0.183-0.335-0.183-0.538 0-0.020 0.001-0.040 0.002-0.060v0.003-0.863c0-0.264 0.060-0.465 0.18-0.604s0.326-0.206 0.618-0.205c0.275 0 0.47 0.059 0.585 0.176 0.126 0.149 0.187 0.332 0.173 0.516v0.203h-0.491v-0.205c0.002-0.067-0.003-0.134-0.015-0.201-0.008-0.049-0.034-0.090-0.070-0.119l-0.001-0.001c-0.044-0.030-0.098-0.047-0.157-0.047-0.007 0-0.015 0.001-0.022 0.001h0.001c-0.006-0.001-0.014-0.001-0.021-0.001-0.062 0-0.119 0.019-0.167 0.051l0.001-0.001c-0.040 0.033-0.070 0.078-0.081 0.13v0.002c-0.012 0.059-0.020 0.127-0.020 0.197 0 0.006 0 0.012 0 0.017v-0.001 1.048c-0.008 0.101 0.014 0.202 0.063 0.294 0.025 0.031 0.058 0.056 0.097 0.071l0.002 0.001c0.029 0.011 0.062 0.018 0.097 0.018 0.011 0 0.021-0.001 0.031-0.002h-0.001c0.006 0.001 0.013 0.001 0.021 0.001 0.057 0 0.111-0.018 0.154-0.049l-0.001 0.001c0.038-0.031 0.065-0.076 0.073-0.126v-0.001c0.011-0.070 0.017-0.14 0.015-0.21v-0.213h0.491v0.194c0.001 0.015 0.002 0.033 0.002 0.051 0 0.186-0.065 0.358-0.173 0.493l0.001-0.002c-0.113 0.128-0.305 0.192-0.588 0.192s-0.496-0.069-0.618-0.211zM18.042 15.233c-0.124-0.135-0.186-0.33-0.186-0.589v-0.908c0-0.257 0.062-0.451 0.186-0.582s0.331-0.197 0.623-0.197c0.289 0 0.495 0.066 0.619 0.197 0.124 0.132 0.187 0.326 0.187 0.582v0.908c0 0.257-0.063 0.453-0.189 0.589s-0.331 0.203-0.618 0.203-0.497-0.069-0.623-0.202zM18.893 15.015c0.044-0.084 0.065-0.176 0.059-0.268v-1.112c0.001-0.009 0.001-0.020 0.001-0.030 0-0.085-0.022-0.166-0.060-0.236l0.001 0.003c-0.026-0.032-0.060-0.057-0.099-0.072l-0.002-0.001c-0.029-0.011-0.062-0.017-0.096-0.017-0.012 0-0.024 0.001-0.035 0.002h0.001c-0.010-0.001-0.021-0.002-0.033-0.002-0.035 0-0.068 0.006-0.099 0.018l0.002-0.001c-0.040 0.015-0.075 0.040-0.101 0.072l-0.001 0.001c-0.045 0.083-0.065 0.173-0.059 0.263v1.117c-0.006 0.093 0.014 0.185 0.059 0.269 0.029 0.028 0.064 0.051 0.104 0.066 0.038 0.015 0.081 0.024 0.126 0.024s0.089-0.009 0.129-0.025l-0.002 0.001c0.040-0.016 0.075-0.038 0.104-0.066v-0.006zM20.062 12.983h0.529l0.397 1.675 0.407-1.675h0.514l0.052 2.418h-0.381l-0.041-1.681-0.392 1.681h-0.305l-0.406-1.687-0.038 1.687h-0.385l0.048-2.418zM22.555 12.983h0.824c0.474 0 0.712 0.229 0.712 0.687 0 0.438-0.25 0.657-0.749 0.657h-0.281v1.075h-0.509l0.003-2.419zM23.259 14.017c0.051 0.006 0.101 0.002 0.15-0.012 0.048-0.013 0.093-0.035 0.13-0.065 0.058-0.082 0.084-0.177 0.074-0.273 0.001-0.008 0.001-0.017 0.001-0.026 0-0.069-0.009-0.135-0.026-0.198l0.001 0.005c-0.008-0.026-0.021-0.048-0.038-0.067v0c-0.018-0.020-0.039-0.036-0.063-0.048l-0.001-0.001c-0.059-0.025-0.128-0.040-0.2-0.040-0.010 0-0.019 0-0.028 0.001h-0.196v0.723h0.198zM24.825 12.983h0.546l0.56 2.418h-0.474l-0.111-0.557h-0.487l-0.114 0.557h-0.481l0.56-2.418zM25.291 14.564l-0.19-1.015-0.19 1.015h0.38zM26.384 12.983h0.357l0.681 1.379v-1.379h0.422v2.418h-0.339l-0.685-1.44v1.44h-0.436l0.001-2.418zM28.832 14.479l-0.566-1.493h0.477l0.346 0.959 0.325-0.959h0.467l-0.56 1.493v0.922h-0.488v-0.922zM16.781 16.459v0.126h-0.415v0.982h-0.174v-0.982h-0.417v-0.126h1.006zM18.083 17.568h-0.134c-0.001 0-0.002 0-0.004 0-0.013 0-0.025-0.004-0.034-0.011v0c-0.010-0.006-0.017-0.015-0.022-0.025v-0.001l-0.12-0.263h-0.576l-0.12 0.263c-0.004 0.012-0.010 0.022-0.019 0.030v0c-0.010 0.007-0.022 0.011-0.035 0.011-0.001 0-0.002 0-0.003 0h-0.134l0.509-1.109h0.177l0.515 1.105zM17.24 17.156h0.48l-0.204-0.451c-0.013-0.029-0.026-0.063-0.036-0.099l-0.002-0.006c-0.007 0.021-0.013 0.042-0.019 0.059l-0.019 0.047-0.201 0.451zM18.959 17.459c0.032 0.002 0.064 0.002 0.096 0 0.027-0.002 0.054-0.007 0.081-0.013 0.025-0.005 0.049-0.012 0.074-0.020 0.022-0.008 0.045-0.017 0.068-0.027v-0.249h-0.203c-0.001 0-0.001 0-0.002 0-0.010 0-0.019-0.003-0.026-0.009v0c-0.003-0.002-0.006-0.006-0.008-0.009v0c-0.002-0.003-0.002-0.006-0.002-0.010 0-0.001 0-0.001 0-0.001v0-0.085h0.395v0.425c-0.062 0.038-0.133 0.069-0.209 0.089l-0.006 0.001c-0.042 0.011-0.084 0.019-0.127 0.023-0.049 0.005-0.099 0.007-0.149 0.007-0.002 0-0.004 0-0.006 0-0.089 0-0.175-0.015-0.255-0.043l0.006 0.002c-0.079-0.027-0.146-0.067-0.204-0.117l0.001 0.001c-0.054-0.048-0.099-0.107-0.13-0.172l-0.001-0.003c-0.030-0.066-0.047-0.142-0.047-0.223 0-0.002 0-0.005 0-0.007v0.001c0-0.002 0-0.005 0-0.007 0-0.081 0.017-0.159 0.047-0.229l-0.002 0.004c0.029-0.066 0.074-0.126 0.131-0.176s0.127-0.089 0.204-0.115c0.087-0.029 0.18-0.043 0.272-0.042 0.047 0 0.095 0.003 0.141 0.010 0.042 0.006 0.082 0.015 0.121 0.028 0.036 0.011 0.070 0.026 0.102 0.044 0.031 0.017 0.061 0.037 0.089 0.058l-0.049 0.069c-0.004 0.006-0.010 0.011-0.016 0.015v0c-0.007 0.004-0.015 0.006-0.024 0.006v0c-0.012 0-0.022-0.003-0.032-0.009h0.001c-0.021-0.010-0.037-0.019-0.053-0.028l0.003 0.002c-0.019-0.011-0.042-0.021-0.065-0.029l-0.003-0.001c-0.026-0.010-0.057-0.018-0.090-0.024l-0.004-0.001c-0.037-0.006-0.079-0.010-0.122-0.010-0.002 0-0.005 0-0.007 0h0.001c-0.002 0-0.004 0-0.006 0-0.068 0-0.134 0.011-0.194 0.032l0.005-0.001c-0.057 0.020-0.108 0.049-0.15 0.088-0.040 0.038-0.072 0.084-0.093 0.135l-0.001 0.003c-0.021 0.055-0.034 0.118-0.034 0.185s0.012 0.13 0.035 0.189l-0.001-0.003c0.022 0.052 0.057 0.1 0.102 0.14 0.042 0.038 0.092 0.068 0.148 0.088 0.065 0.019 0.133 0.026 0.202 0.022zM20.581 17.441h0.555v0.126h-0.725v-1.109h0.173l-0.004 0.982zM21.713 17.568h-0.173v-1.109h0.173v1.109zM22.361 16.464c0.011 0.005 0.019 0.012 0.026 0.020v0l0.743 0.836c-0.001-0.006-0.001-0.013-0.001-0.020s0-0.014 0.001-0.021v0.001-0.826h0.152v1.114h-0.088c-0.002 0-0.004 0-0.006 0-0.012 0-0.022-0.002-0.033-0.007h0.001c-0.011-0.006-0.020-0.012-0.027-0.021v0l-0.743-0.835v0.862h-0.145v-1.109h0.090c0.010 0 0.020 0.002 0.029 0.005zM24.563 16.459v0.122h-0.616v0.366h0.5v0.118h-0.5v0.378h0.616v0.122h-0.796v-1.107h0.796zM6.336 9.61l7.723 1.893v6.635l-7.723-1.893v-6.636zM5.841 9.044v7.523l8.713 2.137v-7.522l-8.713-2.137z"></path>
<path d="M10.511 22.196l-8.714-2.138v-7.522l8.714 2.137v7.523z"></path>
<path d="M5.985 9.524l7.623 1.869-3.242 2.8-7.623-1.871 3.243-2.799zM5.841 9.044l-4.044 3.491 8.714 2.138 4.043-3.492-8.713-2.137zM11.001 21.772l3.553-3.069-3.554-0.871v3.941z"></path>
</svg>
