<!-- Generated by IcoMoon.io -->
<svg version="1.1" xmlns="http://www.w3.org/2000/svg" width="32" height="32" viewBox="0 0 32 32">
<title>brand-2</title>
<path d="M10.901 21.719c0.005 0 0.010 0.001 0.014 0.003s0.008 0.004 0.012 0.007v0l0.065 0.062c-0.051 0.051-0.113 0.091-0.184 0.118-0.072 0.027-0.156 0.043-0.244 0.043-0.006 0-0.012 0-0.018 0h0.001c-0.084 0.002-0.167-0.012-0.245-0.040-0.072-0.026-0.133-0.064-0.185-0.112l0.001 0.001c-0.051-0.048-0.090-0.106-0.118-0.17l-0.001-0.003c-0.026-0.064-0.042-0.138-0.042-0.216 0-0.002 0-0.005 0-0.007v0.001c0-0.003 0-0.007 0-0.011 0-0.153 0.066-0.29 0.171-0.384l0.001-0.001c0.056-0.049 0.122-0.087 0.196-0.113 0.080-0.027 0.166-0.040 0.253-0.039 0.005 0 0.010 0 0.016 0 0.078 0 0.153 0.013 0.223 0.038l-0.005-0.002c0.065 0.025 0.124 0.058 0.176 0.101l-0.055 0.066c-0.004 0.005-0.008 0.008-0.013 0.012v0c-0.006 0.003-0.012 0.005-0.019 0.005-0.001 0-0.002 0-0.003 0v0c-0.009-0.001-0.017-0.003-0.024-0.007v0l-0.029-0.018-0.041-0.023c-0.037-0.018-0.081-0.032-0.126-0.039l-0.003-0.001c-0.027-0.005-0.058-0.007-0.090-0.007-0.002 0-0.005 0-0.007 0h0.001c-0.002 0-0.004 0-0.006 0-0.063 0-0.123 0.011-0.179 0.031l0.004-0.001c-0.055 0.019-0.102 0.048-0.143 0.084l0.001-0.001c-0.041 0.038-0.072 0.084-0.092 0.133-0.021 0.050-0.033 0.108-0.033 0.17 0 0.002 0 0.005 0 0.006v-0.001c0 0.002 0 0.005 0 0.007 0 0.062 0.012 0.121 0.034 0.175l-0.001-0.003c0.020 0.049 0.051 0.094 0.091 0.133 0.038 0.036 0.084 0.065 0.136 0.083 0.053 0.019 0.11 0.029 0.168 0.029 0.033 0.001 0.067-0.002 0.1-0.006 0.083-0.008 0.157-0.042 0.216-0.092l-0.001 0.001c0.008-0.007 0.019-0.011 0.031-0.011v0zM12.786 21.406c0 0.002 0 0.005 0 0.007 0 0.077-0.016 0.151-0.045 0.217l0.001-0.003c-0.029 0.067-0.071 0.125-0.122 0.171l-0.001 0.001c-0.054 0.048-0.118 0.086-0.189 0.111l-0.004 0.001c-0.074 0.025-0.159 0.040-0.248 0.040s-0.174-0.015-0.254-0.042l0.006 0.002c-0.074-0.026-0.138-0.065-0.192-0.113l0.001 0.001c-0.052-0.047-0.094-0.105-0.123-0.17l-0.001-0.003c-0.028-0.065-0.044-0.141-0.044-0.221s0.016-0.155 0.045-0.225l-0.002 0.004c0.028-0.065 0.070-0.123 0.124-0.173 0.054-0.048 0.12-0.084 0.191-0.109 0.074-0.026 0.159-0.040 0.248-0.040s0.174 0.015 0.254 0.042l-0.006-0.002c0.072 0.025 0.138 0.064 0.193 0.113s0.096 0.108 0.123 0.171c0.030 0.071 0.045 0.147 0.044 0.222zM12.615 21.406c0-0.003 0-0.006 0-0.010 0-0.061-0.011-0.118-0.033-0.171l0.001 0.003c-0.040-0.102-0.121-0.181-0.222-0.216l-0.003-0.001c-0.054-0.019-0.116-0.029-0.18-0.029s-0.126 0.011-0.185 0.030l0.004-0.001c-0.054 0.019-0.1 0.048-0.138 0.084v0c-0.038 0.036-0.069 0.080-0.088 0.13l-0.001 0.002c-0.020 0.053-0.031 0.113-0.031 0.177s0.011 0.125 0.033 0.181l-0.001-0.003c0.040 0.102 0.122 0.181 0.224 0.215l0.003 0.001c0.116 0.038 0.244 0.038 0.361 0 0.052-0.019 0.099-0.047 0.138-0.083 0.039-0.039 0.069-0.084 0.088-0.133 0.022-0.057 0.033-0.117 0.031-0.177zM14.073 21.592l0.017 0.039c0.006-0.014 0.012-0.027 0.019-0.039 0.007-0.015 0.015-0.028 0.022-0.040l-0.001 0.002 0.417-0.659c0.008-0.011 0.016-0.019 0.024-0.021s0.019-0.004 0.029-0.004c0.002 0 0.004 0 0.006 0v0h0.123v1.072h-0.146v-0.821c-0.001-0.006-0.001-0.012-0.001-0.019s0-0.013 0.001-0.020v0.001l-0.42 0.668c-0.006 0.010-0.014 0.019-0.024 0.024h-0.001c-0.010 0.006-0.022 0.009-0.035 0.009 0 0-0.001 0-0.001 0h-0.024c0 0-0.001 0-0.001 0-0.013 0-0.025-0.003-0.035-0.009h0.001c-0.010-0.006-0.019-0.014-0.024-0.024v-0.001l-0.432-0.673v0.86h-0.141v-1.069h0.123c0.002 0 0.004 0 0.006 0 0.010 0 0.020 0.001 0.029 0.004h-0.001c0.010 0.005 0.018 0.012 0.023 0.021l0.426 0.66c0.008 0.011 0.015 0.024 0.021 0.037l0.001 0.002zM15.642 21.538v0.401h-0.163v-1.070h0.364c0.069-0.001 0.137 0.007 0.203 0.024 0.053 0.013 0.102 0.036 0.144 0.067 0.035 0.027 0.062 0.063 0.081 0.103l0.001 0.002c0.020 0.044 0.029 0.090 0.028 0.137 0 0.002 0 0.005 0 0.007 0 0.097-0.046 0.182-0.117 0.237l-0.001 0.001c-0.042 0.032-0.091 0.056-0.145 0.071-0.055 0.016-0.118 0.025-0.184 0.025-0.005 0-0.009 0-0.013 0l-0.197-0.003zM15.642 21.423h0.198c0.043 0.001 0.086-0.005 0.127-0.016 0.035-0.010 0.065-0.026 0.092-0.047l-0.001 0.001c0.046-0.038 0.075-0.095 0.075-0.158 0-0.001 0-0.002 0-0.003v0c0-0.003 0.001-0.007 0.001-0.012 0-0.027-0.006-0.053-0.017-0.077l0.001 0.001c-0.013-0.029-0.033-0.053-0.057-0.073l-0.001-0.001c-0.054-0.037-0.122-0.058-0.194-0.058-0.009 0-0.018 0.001-0.027 0.001h-0.197v0.441zM17.837 21.941h-0.129c-0.001 0-0.002 0-0.002 0-0.012 0-0.024-0.004-0.034-0.010v0c-0.009-0.006-0.016-0.015-0.021-0.025v-0.001l-0.111-0.259h-0.558l-0.115 0.259c-0.010 0.021-0.031 0.035-0.056 0.035-0.001 0-0.001 0-0.002 0h-0.129l0.49-1.072h0.17l0.496 1.072zM17.029 21.543h0.46l-0.194-0.436c-0.015-0.033-0.027-0.066-0.037-0.101l-0.019 0.056c-0.006 0.017-0.012 0.033-0.018 0.045l-0.193 0.435zM18.543 20.875c0.010 0.005 0.018 0.011 0.024 0.019l0.715 0.808v-0.832h0.146v1.072h-0.081c-0.001 0-0.001 0-0.002 0-0.011 0-0.022-0.002-0.032-0.007h0.001c-0.010-0.005-0.019-0.012-0.026-0.020v0l-0.713-0.807c0.001 0.006 0.001 0.012 0.001 0.019s0 0.013-0.001 0.019v-0.001 0.797h-0.146v-1.072h0.086c0.010 0 0.020 0.002 0.029 0.005zM20.63 21.515v0.426h-0.163v-0.425l-0.451-0.646h0.146c0.001 0 0.002 0 0.003 0 0.012 0 0.022 0.003 0.031 0.009v0c0.009 0.007 0.016 0.015 0.022 0.024l0.282 0.417c0.011 0.018 0.021 0.034 0.029 0.050s0.015 0.030 0.021 0.045l0.021-0.046c0.008-0.017 0.017-0.033 0.028-0.049l0.278-0.419c0.006-0.008 0.013-0.016 0.021-0.022v0c0.009-0.007 0.020-0.011 0.032-0.011 0.001 0 0.002 0 0.003 0h0.148l-0.452 0.648zM13.992 19.071c0.071 0.008 0.143 0.014 0.216 0.020 1.101-0.428 2.033-1.129 2.679-2.014s0.976-1.917 0.951-2.965l-1.214-1.054c0.246 1.116 0.131 2.27-0.333 3.332s-1.26 1.991-2.298 2.683z"></path>
<path d="M13.558 19.021l0.033 0.006c1.109-0.689 1.954-1.652 2.427-2.763s0.551-2.32 0.225-3.47l-1.729-1.502c0.699 1.235 0.981 2.617 0.811 3.985s-0.781 2.667-1.767 3.744zM19.422 15.349c-0.294 1.152-1.007 2.191-2.034 2.962-0.281 0.213-0.597 0.414-0.931 0.586l-0.037 0.017c0.837-0.213 1.605-0.591 2.247-1.104s1.14-1.146 1.455-1.853l-0.701-0.609z"></path>
<path d="M19.147 15.18l-0.998-0.867c-0.019 0.989-0.343 1.955-0.937 2.799s-1.438 1.534-2.443 1.998h0.005c0.224 0 0.447-0.012 0.67-0.035 0.939-0.333 1.769-0.863 2.415-1.543s1.089-1.488 1.288-2.352zM13.703 10.658l-1.191-1.036c-1.065 0.358-1.98 0.986-2.627 1.803s-0.995 1.785-0.998 2.777c0.004 1.096 0.428 2.159 1.206 3.022s1.864 1.475 3.088 1.741c1.092-1.157 1.732-2.585 1.826-4.079s-0.363-2.975-1.304-4.228zM21.899 15.020c-0.004-1.3-0.601-2.546-1.659-3.466s-2.492-1.438-3.989-1.441c-0.003 0-0.008 0-0.012 0-0.719 0-1.41 0.12-2.055 0.34l0.044-0.013 7.292 6.336c0.237-0.516 0.377-1.12 0.377-1.756v0z"></path>
</svg>
